<svg xmlns="http://www.w3.org/2000/svg" width="760" height="460" font-family="sans-serif" font-size="12"><rect width="760" height="460" fill="white"/><text x="70" y="24" font-size="16" font-weight="bold">Per-core crypto efficiency vs tunnel count</text><line x1="70" y1="50" x2="70" y2="400" stroke="#333"/><line x1="70" y1="400" x2="580" y2="400" stroke="#333"/><line x1="70" y1="400" x2="580" y2="400" stroke="#eee"/><text x="62" y="404" text-anchor="end">0</text><line x1="70" y1="330" x2="580" y2="330" stroke="#eee"/><text x="62" y="334" text-anchor="end">16</text><line x1="70" y1="260" x2="580" y2="260" stroke="#eee"/><text x="62" y="264" text-anchor="end">31</text><line x1="70" y1="190" x2="580" y2="190" stroke="#eee"/><text x="62" y="194" text-anchor="end">47</text><line x1="70" y1="120.00000000000003" x2="580" y2="120.00000000000003" stroke="#eee"/><text x="62" y="124.00000000000003" text-anchor="end">63</text><line x1="70" y1="50" x2="580" y2="50" stroke="#eee"/><text x="62" y="54" text-anchor="end">78</text><text x="70" y="418" text-anchor="middle">1</text><text x="86.45161290322581" y="418" text-anchor="middle">2</text><text x="119.35483870967742" y="418" text-anchor="middle">4</text><text x="185.16129032258064" y="418" text-anchor="middle">8</text><text x="250.96774193548387" y="418" text-anchor="middle">12</text><text x="316.77419354838713" y="418" text-anchor="middle">16</text><text x="448.38709677419354" y="418" text-anchor="middle">24</text><text x="580" y="418" text-anchor="middle">32</text><text x="325" y="442" text-anchor="middle">tunnels (N)</text><text x="18" y="225" text-anchor="middle" transform="rotate(-90 18 225)">Gbps / busy core</text><path d="M70 400 L86.45161290322581 400 L119.35483870967742 400 L185.16129032258064 400 L250.96774193548387 155.6680839789909 L316.77419354838713 152.17226761048 L448.38709677419354 151.2814979002056 L580 137.79262798267774 " fill="none" stroke="#1f77b4" stroke-width="2"/><circle cx="70" cy="400" r="3" fill="#1f77b4"/><circle cx="86.45161290322581" cy="400" r="3" fill="#1f77b4"/><circle cx="119.35483870967742" cy="400" r="3" fill="#1f77b4"/><circle cx="185.16129032258064" cy="400" r="3" fill="#1f77b4"/><circle cx="250.96774193548387" cy="155.6680839789909" r="3" fill="#1f77b4"/><circle cx="316.77419354838713" cy="152.17226761048" r="3" fill="#1f77b4"/><circle cx="448.38709677419354" cy="151.2814979002056" r="3" fill="#1f77b4"/><circle cx="580" cy="137.79262798267774" r="3" fill="#1f77b4"/><line x1="596" y1="58" x2="614" y2="58" stroke="#1f77b4" stroke-width="2"/><text x="620" y="62">ena_express</text><path d="M185.16129032258064 400 L316.77419354838713 81.81818181818183 L580 100.33040054073287 " fill="none" stroke="#d62728" stroke-width="2"/><circle cx="185.16129032258064" cy="400" r="3" fill="#d62728"/><circle cx="316.77419354838713" cy="81.81818181818183" r="3" fill="#d62728"/><circle cx="580" cy="100.33040054073287" r="3" fill="#d62728"/><line x1="596" y1="76" x2="614" y2="76" stroke="#d62728" stroke-width="2"/><text x="620" y="80">nvme_tcp_placement_read</text><path d="M185.16129032258064 400 L316.77419354838713 400 L580 102.39069325567822 " fill="none" stroke="#2ca02c" stroke-width="2"/><circle cx="185.16129032258064" cy="400" r="3" fill="#2ca02c"/><circle cx="316.77419354838713" cy="400" r="3" fill="#2ca02c"/><circle cx="580" cy="102.39069325567822" r="3" fill="#2ca02c"/><line x1="596" y1="94" x2="614" y2="94" stroke="#2ca02c" stroke-width="2"/><text x="620" y="98">nvme_tcp_placement_write</text><path d="M70 400 L86.45161290322581 400 L119.35483870967742 400 L185.16129032258064 400 L250.96774193548387 149.9303185612807 L316.77419354838713 153.07399216239511 L448.38709677419354 150.9233613169589 L580 132.43340539038104 " fill="none" stroke="#9467bd" stroke-width="2"/><circle cx="70" cy="400" r="3" fill="#9467bd"/><circle cx="86.45161290322581" cy="400" r="3" fill="#9467bd"/><circle cx="119.35483870967742" cy="400" r="3" fill="#9467bd"/><circle cx="185.16129032258064" cy="400" r="3" fill="#9467bd"/><circle cx="250.96774193548387" cy="149.9303185612807" r="3" fill="#9467bd"/><circle cx="316.77419354838713" cy="153.07399216239511" r="3" fill="#9467bd"/><circle cx="448.38709677419354" cy="150.9233613169589" r="3" fill="#9467bd"/><circle cx="580" cy="132.43340539038104" r="3" fill="#9467bd"/><line x1="596" y1="112" x2="614" y2="112" stroke="#9467bd" stroke-width="2"/><text x="620" y="116">placement</text><path d="M70 400 L86.45161290322581 400 L119.35483870967742 282.1479867580033 L185.16129032258064 337.18611150108114 L250.96774193548387 321.219394395984 L316.77419354838713 312.7704374868364 L448.38709677419354 338.210405009312 L580 227.68984342173468 " fill="none" stroke="#ff7f0e" stroke-width="2"/><circle cx="70" cy="400" r="3" fill="#ff7f0e"/><circle cx="86.45161290322581" cy="400" r="3" fill="#ff7f0e"/><circle cx="119.35483870967742" cy="282.1479867580033" r="3" fill="#ff7f0e"/><circle cx="185.16129032258064" cy="337.18611150108114" r="3" fill="#ff7f0e"/><circle cx="250.96774193548387" cy="321.219394395984" r="3" fill="#ff7f0e"/><circle cx="316.77419354838713" cy="312.7704374868364" r="3" fill="#ff7f0e"/><circle cx="448.38709677419354" cy="338.210405009312" r="3" fill="#ff7f0e"/><circle cx="580" cy="227.68984342173468" r="3" fill="#ff7f0e"/><line x1="596" y1="130" x2="614" y2="130" stroke="#ff7f0e" stroke-width="2"/><text x="620" y="134">placement_pinned</text></svg>