<svg xmlns="http://www.w3.org/2000/svg" width="760" height="460" font-family="sans-serif" font-size="12"><rect width="760" height="460" fill="white"/><text x="70" y="24" font-size="16" font-weight="bold">Per-core crypto efficiency vs tunnel count</text><line x1="70" y1="50" x2="70" y2="400" stroke="#333"/><line x1="70" y1="400" x2="580" y2="400" stroke="#333"/><line x1="70" y1="400" x2="580" y2="400" stroke="#eee"/><text x="62" y="404" text-anchor="end">0</text><line x1="70" y1="330" x2="580" y2="330" stroke="#eee"/><text x="62" y="334" text-anchor="end">16</text><line x1="70" y1="260" x2="580" y2="260" stroke="#eee"/><text x="62" y="264" text-anchor="end">31</text><line x1="70" y1="190" x2="580" y2="190" stroke="#eee"/><text x="62" y="194" text-anchor="end">47</text><line x1="70" y1="120.00000000000003" x2="580" y2="120.00000000000003" stroke="#eee"/><text x="62" y="124.00000000000003" text-anchor="end">63</text><line x1="70" y1="50" x2="580" y2="50" stroke="#eee"/><text x="62" y="54" text-anchor="end">78</text><text x="70" y="418" text-anchor="middle">1</text><text x="78.09523809523809" y="418" text-anchor="middle">2</text><text x="94.28571428571428" y="418" text-anchor="middle">4</text><text x="126.66666666666666" y="418" text-anchor="middle">8</text><text x="159.04761904761904" y="418" text-anchor="middle">12</text><text x="191.42857142857142" y="418" text-anchor="middle">16</text><text x="256.1904761904762" y="418" text-anchor="middle">24</text><text x="320.95238095238096" y="418" text-anchor="middle">32</text><text x="385.7142857142857" y="418" text-anchor="middle">40</text><text x="450.4761904761905" y="418" text-anchor="middle">48</text><text x="580" y="418" text-anchor="middle">64</text><text x="325" y="442" text-anchor="middle">tunnels (N)</text><text x="18" y="225" text-anchor="middle" transform="rotate(-90 18 225)">Gbps / busy core</text><path d="M191.42857142857142 349.0016786433124 L256.1904761904762 332.34636170175776 L320.95238095238096 360.69188070907114 " fill="none" stroke="#1f77b4" stroke-width="2"/><circle cx="191.42857142857142" cy="349.0016786433124" r="3" fill="#1f77b4"/><circle cx="256.1904761904762" cy="332.34636170175776" r="3" fill="#1f77b4"/><circle cx="320.95238095238096" cy="360.69188070907114" r="3" fill="#1f77b4"/><line x1="596" y1="58" x2="614" y2="58" stroke="#1f77b4" stroke-width="2"/><text x="620" y="62">align</text><path d="M70 400 L78.09523809523809 400 L94.28571428571428 400 L126.66666666666666 400 L159.04761904761904 155.6680839789909 L191.42857142857142 152.17226761048 L256.1904761904762 151.2814979002056 L320.95238095238096 137.79262798267774 " fill="none" stroke="#d62728" stroke-width="2"/><circle cx="70" cy="400" r="3" fill="#d62728"/><circle cx="78.09523809523809" cy="400" r="3" fill="#d62728"/><circle cx="94.28571428571428" cy="400" r="3" fill="#d62728"/><circle cx="126.66666666666666" cy="400" r="3" fill="#d62728"/><circle cx="159.04761904761904" cy="155.6680839789909" r="3" fill="#d62728"/><circle cx="191.42857142857142" cy="152.17226761048" r="3" fill="#d62728"/><circle cx="256.1904761904762" cy="151.2814979002056" r="3" fill="#d62728"/><circle cx="320.95238095238096" cy="137.79262798267774" r="3" fill="#d62728"/><line x1="596" y1="76" x2="614" y2="76" stroke="#d62728" stroke-width="2"/><text x="620" y="80">ena_express</text><path d="M126.66666666666666 353.9787211696035 L191.42857142857142 98.14253506749411 L256.1904761904762 146.59859722525755 L320.95238095238096 133.24938702653392 " fill="none" stroke="#2ca02c" stroke-width="2"/><circle cx="126.66666666666666" cy="353.9787211696035" r="3" fill="#2ca02c"/><circle cx="191.42857142857142" cy="98.14253506749411" r="3" fill="#2ca02c"/><circle cx="256.1904761904762" cy="146.59859722525755" r="3" fill="#2ca02c"/><circle cx="320.95238095238096" cy="133.24938702653392" r="3" fill="#2ca02c"/><line x1="596" y1="94" x2="614" y2="94" stroke="#2ca02c" stroke-width="2"/><text x="620" y="98">irqlocal_unpinned</text><path d="M126.66666666666666 357.7803798310184 L191.42857142857142 374.862804591984 L256.1904761904762 387.03111203738484 L320.95238095238096 372.53058203333995 " fill="none" stroke="#9467bd" stroke-width="2"/><circle cx="126.66666666666666" cy="357.7803798310184" r="3" fill="#9467bd"/><circle cx="191.42857142857142" cy="374.862804591984" r="3" fill="#9467bd"/><circle cx="256.1904761904762" cy="387.03111203738484" r="3" fill="#9467bd"/><circle cx="320.95238095238096" cy="372.53058203333995" r="3" fill="#9467bd"/><line x1="596" y1="112" x2="614" y2="112" stroke="#9467bd" stroke-width="2"/><text x="620" y="116">irqlocal_userN0</text><path d="M126.66666666666666 356.1600710105033 L191.42857142857142 332.98177053825003 L256.1904761904762 342.6109649038124 L320.95238095238096 360.5356733955144 " fill="none" stroke="#ff7f0e" stroke-width="2"/><circle cx="126.66666666666666" cy="356.1600710105033" r="3" fill="#ff7f0e"/><circle cx="191.42857142857142" cy="332.98177053825003" r="3" fill="#ff7f0e"/><circle cx="256.1904761904762" cy="342.6109649038124" r="3" fill="#ff7f0e"/><circle cx="320.95238095238096" cy="360.5356733955144" r="3" fill="#ff7f0e"/><line x1="596" y1="130" x2="614" y2="130" stroke="#ff7f0e" stroke-width="2"/><text x="620" y="134">irqlocal_userN1</text><path d="M126.66666666666666 162.16669340575845 L191.42857142857142 263.06028305895177 L256.1904761904762 294.64233127567877 L320.95238095238096 315.5672423896077 " fill="none" stroke="#17becf" stroke-width="2"/><circle cx="126.66666666666666" cy="162.16669340575845" r="3" fill="#17becf"/><circle cx="191.42857142857142" cy="263.06028305895177" r="3" fill="#17becf"/><circle cx="256.1904761904762" cy="294.64233127567877" r="3" fill="#17becf"/><circle cx="320.95238095238096" cy="315.5672423896077" r="3" fill="#17becf"/><line x1="596" y1="148" x2="614" y2="148" stroke="#17becf" stroke-width="2"/><text x="620" y="152">numa_node0</text><path d="M126.66666666666666 400 L191.42857142857142 371.59016629691126 L256.1904761904762 400 L320.95238095238096 274.2580001752411 " fill="none" stroke="#8c564b" stroke-width="2"/><circle cx="126.66666666666666" cy="400" r="3" fill="#8c564b"/><circle cx="191.42857142857142" cy="371.59016629691126" r="3" fill="#8c564b"/><circle cx="256.1904761904762" cy="400" r="3" fill="#8c564b"/><circle cx="320.95238095238096" cy="274.2580001752411" r="3" fill="#8c564b"/><line x1="596" y1="166" x2="614" y2="166" stroke="#8c564b" stroke-width="2"/><text x="620" y="170">numa_node1</text><path d="M320.95238095238096 141.6615496663707 " fill="none" stroke="#e377c2" stroke-width="2"/><circle cx="320.95238095238096" cy="141.6615496663707" r="3" fill="#e377c2"/><line x1="596" y1="184" x2="614" y2="184" stroke="#e377c2" stroke-width="2"/><text x="620" y="188">nvme_tcp_balanced_read</text><path d="M320.95238095238096 400 " fill="none" stroke="#1f77b4" stroke-width="2"/><circle cx="320.95238095238096" cy="400" r="3" fill="#1f77b4"/><line x1="596" y1="202" x2="614" y2="202" stroke="#1f77b4" stroke-width="2"/><text x="620" y="206">nvme_tcp_balanced_write</text><path d="M320.95238095238096 400 " fill="none" stroke="#d62728" stroke-width="2"/><circle cx="320.95238095238096" cy="400" r="3" fill="#d62728"/><line x1="596" y1="220" x2="614" y2="220" stroke="#d62728" stroke-width="2"/><text x="620" y="224">nvme_tcp_far_read</text><path d="M320.95238095238096 400 " fill="none" stroke="#2ca02c" stroke-width="2"/><circle cx="320.95238095238096" cy="400" r="3" fill="#2ca02c"/><line x1="596" y1="238" x2="614" y2="238" stroke="#2ca02c" stroke-width="2"/><text x="620" y="242">nvme_tcp_far_write</text><path d="M320.95238095238096 400 " fill="none" stroke="#9467bd" stroke-width="2"/><circle cx="320.95238095238096" cy="400" r="3" fill="#9467bd"/><line x1="596" y1="256" x2="614" y2="256" stroke="#9467bd" stroke-width="2"/><text x="620" y="260">nvme_tcp_near_read</text><path d="M320.95238095238096 400 " fill="none" stroke="#ff7f0e" stroke-width="2"/><circle cx="320.95238095238096" cy="400" r="3" fill="#ff7f0e"/><line x1="596" y1="274" x2="614" y2="274" stroke="#ff7f0e" stroke-width="2"/><text x="620" y="278">nvme_tcp_near_write</text><path d="M126.66666666666666 400 L191.42857142857142 81.81818181818183 L320.95238095238096 100.33040054073287 " fill="none" stroke="#17becf" stroke-width="2"/><circle cx="126.66666666666666" cy="400" r="3" fill="#17becf"/><circle cx="191.42857142857142" cy="81.81818181818183" r="3" fill="#17becf"/><circle cx="320.95238095238096" cy="100.33040054073287" r="3" fill="#17becf"/><line x1="596" y1="292" x2="614" y2="292" stroke="#17becf" stroke-width="2"/><text x="620" y="296">nvme_tcp_placement_read</text><path d="M126.66666666666666 400 L191.42857142857142 400 L320.95238095238096 102.39069325567822 " fill="none" stroke="#8c564b" stroke-width="2"/><circle cx="126.66666666666666" cy="400" r="3" fill="#8c564b"/><circle cx="191.42857142857142" cy="400" r="3" fill="#8c564b"/><circle cx="320.95238095238096" cy="102.39069325567822" r="3" fill="#8c564b"/><line x1="596" y1="310" x2="614" y2="310" stroke="#8c564b" stroke-width="2"/><text x="620" y="314">nvme_tcp_placement_write</text><path d="M70 400 L78.09523809523809 400 L94.28571428571428 400 L126.66666666666666 400 L159.04761904761904 149.9303185612807 L191.42857142857142 153.07399216239511 L256.1904761904762 150.9233613169589 L320.95238095238096 132.43340539038104 " fill="none" stroke="#e377c2" stroke-width="2"/><circle cx="70" cy="400" r="3" fill="#e377c2"/><circle cx="78.09523809523809" cy="400" r="3" fill="#e377c2"/><circle cx="94.28571428571428" cy="400" r="3" fill="#e377c2"/><circle cx="126.66666666666666" cy="400" r="3" fill="#e377c2"/><circle cx="159.04761904761904" cy="149.9303185612807" r="3" fill="#e377c2"/><circle cx="191.42857142857142" cy="153.07399216239511" r="3" fill="#e377c2"/><circle cx="256.1904761904762" cy="150.9233613169589" r="3" fill="#e377c2"/><circle cx="320.95238095238096" cy="132.43340539038104" r="3" fill="#e377c2"/><line x1="596" y1="328" x2="614" y2="328" stroke="#e377c2" stroke-width="2"/><text x="620" y="332">placement</text><path d="M70 400 L78.09523809523809 400 L94.28571428571428 282.1479867580033 L126.66666666666666 337.18611150108114 L159.04761904761904 321.219394395984 L191.42857142857142 312.7704374868364 L256.1904761904762 338.210405009312 L320.95238095238096 227.68984342173468 " fill="none" stroke="#1f77b4" stroke-width="2"/><circle cx="70" cy="400" r="3" fill="#1f77b4"/><circle cx="78.09523809523809" cy="400" r="3" fill="#1f77b4"/><circle cx="94.28571428571428" cy="282.1479867580033" r="3" fill="#1f77b4"/><circle cx="126.66666666666666" cy="337.18611150108114" r="3" fill="#1f77b4"/><circle cx="159.04761904761904" cy="321.219394395984" r="3" fill="#1f77b4"/><circle cx="191.42857142857142" cy="312.7704374868364" r="3" fill="#1f77b4"/><circle cx="256.1904761904762" cy="338.210405009312" r="3" fill="#1f77b4"/><circle cx="320.95238095238096" cy="227.68984342173468" r="3" fill="#1f77b4"/><line x1="596" y1="346" x2="614" y2="346" stroke="#1f77b4" stroke-width="2"/><text x="620" y="350">placement_pinned</text><path d="M191.42857142857142 334.42902888837386 L256.1904761904762 331.16222187931135 L320.95238095238096 400 " fill="none" stroke="#d62728" stroke-width="2"/><circle cx="191.42857142857142" cy="334.42902888837386" r="3" fill="#d62728"/><circle cx="256.1904761904762" cy="331.16222187931135" r="3" fill="#d62728"/><circle cx="320.95238095238096" cy="400" r="3" fill="#d62728"/><line x1="596" y1="364" x2="614" y2="364" stroke="#d62728" stroke-width="2"/><text x="620" y="368">rps_on</text><path d="M191.42857142857142 333.4063863817239 L256.1904761904762 369.99371284631883 L320.95238095238096 400 " fill="none" stroke="#2ca02c" stroke-width="2"/><circle cx="191.42857142857142" cy="333.4063863817239" r="3" fill="#2ca02c"/><circle cx="256.1904761904762" cy="369.99371284631883" r="3" fill="#2ca02c"/><circle cx="320.95238095238096" cy="400" r="3" fill="#2ca02c"/><line x1="596" y1="382" x2="614" y2="382" stroke="#2ca02c" stroke-width="2"/><text x="620" y="386">split</text><path d="M320.95238095238096 350.73469865227406 L385.7142857142857 364.5698898352559 L450.4761904761905 400 L580 372.9401219868332 " fill="none" stroke="#9467bd" stroke-width="2"/><circle cx="320.95238095238096" cy="350.73469865227406" r="3" fill="#9467bd"/><circle cx="385.7142857142857" cy="364.5698898352559" r="3" fill="#9467bd"/><circle cx="450.4761904761905" cy="400" r="3" fill="#9467bd"/><circle cx="580" cy="372.9401219868332" r="3" fill="#9467bd"/><line x1="596" y1="400" x2="614" y2="400" stroke="#9467bd" stroke-width="2"/><text x="620" y="404">split64</text></svg>