<svg xmlns="http://www.w3.org/2000/svg" width="760" height="460" font-family="sans-serif" font-size="12"><rect width="760" height="460" fill="white"/><text x="70" y="24" font-size="16" font-weight="bold">Per-core crypto efficiency vs tunnel count</text><line x1="70" y1="50" x2="70" y2="400" stroke="#333"/><line x1="70" y1="400" x2="580" y2="400" stroke="#333"/><line x1="70" y1="400" x2="580" y2="400" stroke="#eee"/><text x="62" y="404" text-anchor="end">0</text><line x1="70" y1="330" x2="580" y2="330" stroke="#eee"/><text x="62" y="334" text-anchor="end">25</text><line x1="70" y1="260" x2="580" y2="260" stroke="#eee"/><text x="62" y="264" text-anchor="end">50</text><line x1="70" y1="190" x2="580" y2="190" stroke="#eee"/><text x="62" y="194" text-anchor="end">75</text><line x1="70" y1="119.99999999999999" x2="580" y2="119.99999999999999" stroke="#eee"/><text x="62" y="123.99999999999999" text-anchor="end">99</text><line x1="70" y1="50" x2="580" y2="50" stroke="#eee"/><text x="62" y="54" text-anchor="end">124</text><text x="70" y="418" text-anchor="middle">1</text><text x="74.01574803149606" y="418" text-anchor="middle">2</text><text x="82.04724409448819" y="418" text-anchor="middle">4</text><text x="98.11023622047244" y="418" text-anchor="middle">8</text><text x="114.1732283464567" y="418" text-anchor="middle">12</text><text x="130.23622047244095" y="418" text-anchor="middle">16</text><text x="162.36220472440945" y="418" text-anchor="middle">24</text><text x="194.48818897637796" y="418" text-anchor="middle">32</text><text x="226.61417322834646" y="418" text-anchor="middle">40</text><text x="258.74015748031496" y="418" text-anchor="middle">48</text><text x="322.99212598425197" y="418" text-anchor="middle">64</text><text x="451.496062992126" y="418" text-anchor="middle">96</text><text x="580" y="418" text-anchor="middle">128</text><text x="325" y="442" text-anchor="middle">tunnels (N)</text><text x="18" y="225" text-anchor="middle" transform="rotate(-90 18 225)">Gbps / busy core</text><path d="M130.23622047244095 367.83308789000034 L162.36220472440945 357.32783787449324 L194.48818897637796 375.20661886893885 " fill="none" stroke="#1f77b4" stroke-width="2"/><circle cx="130.23622047244095" cy="367.83308789000034" r="3" fill="#1f77b4"/><circle cx="162.36220472440945" cy="357.32783787449324" r="3" fill="#1f77b4"/><circle cx="194.48818897637796" cy="375.20661886893885" r="3" fill="#1f77b4"/><line x1="596" y1="58" x2="614" y2="58" stroke="#1f77b4" stroke-width="2"/><text x="620" y="62">align</text><path d="M194.48818897637796 330.37495382058745 L226.61417322834646 265.953346897862 L258.74015748031496 275.9614445279126 L322.99212598425197 220.6167632025645 " fill="none" stroke="#d62728" stroke-width="2"/><circle cx="194.48818897637796" cy="330.37495382058745" r="3" fill="#d62728"/><circle cx="226.61417322834646" cy="265.953346897862" r="3" fill="#d62728"/><circle cx="258.74015748031496" cy="275.9614445279126" r="3" fill="#d62728"/><circle cx="322.99212598425197" cy="220.6167632025645" r="3" fill="#d62728"/><line x1="596" y1="76" x2="614" y2="76" stroke="#d62728" stroke-width="2"/><text x="620" y="80">bidir_split</text><path d="M70 400 L74.01574803149606 400 L82.04724409448819 400 L98.11023622047244 400 L114.1732283464567 245.88898106378574 L130.23622047244095 243.68401402002553 L162.36220472440945 243.1221658999621 L194.48818897637796 234.6141350166389 " fill="none" stroke="#2ca02c" stroke-width="2"/><circle cx="70" cy="400" r="3" fill="#2ca02c"/><circle cx="74.01574803149606" cy="400" r="3" fill="#2ca02c"/><circle cx="82.04724409448819" cy="400" r="3" fill="#2ca02c"/><circle cx="98.11023622047244" cy="400" r="3" fill="#2ca02c"/><circle cx="114.1732283464567" cy="245.88898106378574" r="3" fill="#2ca02c"/><circle cx="130.23622047244095" cy="243.68401402002553" r="3" fill="#2ca02c"/><circle cx="162.36220472440945" cy="243.1221658999621" r="3" fill="#2ca02c"/><circle cx="194.48818897637796" cy="234.6141350166389" r="3" fill="#2ca02c"/><line x1="596" y1="94" x2="614" y2="94" stroke="#2ca02c" stroke-width="2"/><text x="620" y="98">ena_express</text><path d="M98.11023622047244 370.97233022684526 L130.23622047244095 209.6050558935124 L162.36220472440945 240.16845192617538 L194.48818897637796 231.74851064620725 " fill="none" stroke="#9467bd" stroke-width="2"/><circle cx="98.11023622047244" cy="370.97233022684526" r="3" fill="#9467bd"/><circle cx="130.23622047244095" cy="209.6050558935124" r="3" fill="#9467bd"/><circle cx="162.36220472440945" cy="240.16845192617538" r="3" fill="#9467bd"/><circle cx="194.48818897637796" cy="231.74851064620725" r="3" fill="#9467bd"/><line x1="596" y1="112" x2="614" y2="112" stroke="#9467bd" stroke-width="2"/><text x="620" y="116">irqlocal_unpinned</text><path d="M98.11023622047244 373.3702056231482 L130.23622047244095 384.1448515584228 L162.36220472440945 391.8199448891631 L194.48818897637796 382.67381494252794 " fill="none" stroke="#ff7f0e" stroke-width="2"/><circle cx="98.11023622047244" cy="373.3702056231482" r="3" fill="#ff7f0e"/><circle cx="130.23622047244095" cy="384.1448515584228" r="3" fill="#ff7f0e"/><circle cx="162.36220472440945" cy="391.8199448891631" r="3" fill="#ff7f0e"/><circle cx="194.48818897637796" cy="382.67381494252794" r="3" fill="#ff7f0e"/><line x1="596" y1="130" x2="614" y2="130" stroke="#ff7f0e" stroke-width="2"/><text x="620" y="134">irqlocal_userN0</text><path d="M98.11023622047244 372.3482047016663 L130.23622047244095 357.72861852086805 L162.36220472440945 363.802180171668 L194.48818897637796 375.1080919607495 " fill="none" stroke="#17becf" stroke-width="2"/><circle cx="98.11023622047244" cy="372.3482047016663" r="3" fill="#17becf"/><circle cx="130.23622047244095" cy="357.72861852086805" r="3" fill="#17becf"/><circle cx="162.36220472440945" cy="363.802180171668" r="3" fill="#17becf"/><circle cx="194.48818897637796" cy="375.1080919607495" r="3" fill="#17becf"/><line x1="596" y1="148" x2="614" y2="148" stroke="#17becf" stroke-width="2"/><text x="620" y="152">irqlocal_userN1</text><path d="M98.11023622047244 249.98794339640835 L130.23622047244095 313.6260229351 L162.36220472440945 333.54622701664107 L194.48818897637796 346.7445001912353 " fill="none" stroke="#8c564b" stroke-width="2"/><circle cx="98.11023622047244" cy="249.98794339640835" r="3" fill="#8c564b"/><circle cx="130.23622047244095" cy="313.6260229351" r="3" fill="#8c564b"/><circle cx="162.36220472440945" cy="333.54622701664107" r="3" fill="#8c564b"/><circle cx="194.48818897637796" cy="346.7445001912353" r="3" fill="#8c564b"/><line x1="596" y1="166" x2="614" y2="166" stroke="#8c564b" stroke-width="2"/><text x="620" y="170">numa_node0</text><path d="M98.11023622047244 400 L130.23622047244095 382.08065286315303 L162.36220472440945 400 L194.48818897637796 320.68892172725964 " fill="none" stroke="#e377c2" stroke-width="2"/><circle cx="98.11023622047244" cy="400" r="3" fill="#e377c2"/><circle cx="130.23622047244095" cy="382.08065286315303" r="3" fill="#e377c2"/><circle cx="162.36220472440945" cy="400" r="3" fill="#e377c2"/><circle cx="194.48818897637796" cy="320.68892172725964" r="3" fill="#e377c2"/><line x1="596" y1="184" x2="614" y2="184" stroke="#e377c2" stroke-width="2"/><text x="620" y="188">numa_node1</text><path d="M194.48818897637796 237.05443619615025 " fill="none" stroke="#1f77b4" stroke-width="2"/><circle cx="194.48818897637796" cy="237.05443619615025" r="3" fill="#1f77b4"/><line x1="596" y1="202" x2="614" y2="202" stroke="#1f77b4" stroke-width="2"/><text x="620" y="206">nvme_tcp_balanced_read</text><path d="M194.48818897637796 400 " fill="none" stroke="#d62728" stroke-width="2"/><circle cx="194.48818897637796" cy="400" r="3" fill="#d62728"/><line x1="596" y1="220" x2="614" y2="220" stroke="#d62728" stroke-width="2"/><text x="620" y="224">nvme_tcp_balanced_write</text><path d="M194.48818897637796 400 " fill="none" stroke="#2ca02c" stroke-width="2"/><circle cx="194.48818897637796" cy="400" r="3" fill="#2ca02c"/><line x1="596" y1="238" x2="614" y2="238" stroke="#2ca02c" stroke-width="2"/><text x="620" y="242">nvme_tcp_far_read</text><path d="M194.48818897637796 400 " fill="none" stroke="#9467bd" stroke-width="2"/><circle cx="194.48818897637796" cy="400" r="3" fill="#9467bd"/><line x1="596" y1="256" x2="614" y2="256" stroke="#9467bd" stroke-width="2"/><text x="620" y="260">nvme_tcp_far_write</text><path d="M194.48818897637796 400 " fill="none" stroke="#ff7f0e" stroke-width="2"/><circle cx="194.48818897637796" cy="400" r="3" fill="#ff7f0e"/><line x1="596" y1="274" x2="614" y2="274" stroke="#ff7f0e" stroke-width="2"/><text x="620" y="278">nvme_tcp_near_read</text><path d="M194.48818897637796 400 " fill="none" stroke="#17becf" stroke-width="2"/><circle cx="194.48818897637796" cy="400" r="3" fill="#17becf"/><line x1="596" y1="292" x2="614" y2="292" stroke="#17becf" stroke-width="2"/><text x="620" y="296">nvme_tcp_near_write</text><path d="M98.11023622047244 400 L130.23622047244095 199.30855941570516 L194.48818897637796 210.98504006777475 " fill="none" stroke="#8c564b" stroke-width="2"/><circle cx="98.11023622047244" cy="400" r="3" fill="#8c564b"/><circle cx="130.23622047244095" cy="199.30855941570516" r="3" fill="#8c564b"/><circle cx="194.48818897637796" cy="210.98504006777475" r="3" fill="#8c564b"/><line x1="596" y1="310" x2="614" y2="310" stroke="#8c564b" stroke-width="2"/><text x="620" y="314">nvme_tcp_placement_read</text><path d="M98.11023622047244 400 L130.23622047244095 400 L194.48818897637796 212.284558422879 " fill="none" stroke="#e377c2" stroke-width="2"/><circle cx="98.11023622047244" cy="400" r="3" fill="#e377c2"/><circle cx="130.23622047244095" cy="400" r="3" fill="#e377c2"/><circle cx="194.48818897637796" cy="212.284558422879" r="3" fill="#e377c2"/><line x1="596" y1="328" x2="614" y2="328" stroke="#e377c2" stroke-width="2"/><text x="620" y="332">nvme_tcp_placement_write</text><path d="M70 400 L74.01574803149606 400 L82.04724409448819 400 L98.11023622047244 400 L114.1732283464567 242.26991692619572 L130.23622047244095 244.25277184650403 L162.36220472440945 242.89627320996354 L194.48818897637796 231.233834694622 " fill="none" stroke="#1f77b4" stroke-width="2"/><circle cx="70" cy="400" r="3" fill="#1f77b4"/><circle cx="74.01574803149606" cy="400" r="3" fill="#1f77b4"/><circle cx="82.04724409448819" cy="400" r="3" fill="#1f77b4"/><circle cx="98.11023622047244" cy="400" r="3" fill="#1f77b4"/><circle cx="114.1732283464567" cy="242.26991692619572" r="3" fill="#1f77b4"/><circle cx="130.23622047244095" cy="244.25277184650403" r="3" fill="#1f77b4"/><circle cx="162.36220472440945" cy="242.89627320996354" r="3" fill="#1f77b4"/><circle cx="194.48818897637796" cy="231.233834694622" r="3" fill="#1f77b4"/><line x1="596" y1="346" x2="614" y2="346" stroke="#1f77b4" stroke-width="2"/><text x="620" y="350">placement</text><path d="M70 400 L74.01574803149606 400 L82.04724409448819 325.66548758678493 L98.11023622047244 360.38048357513077 L114.1732283464567 350.3095641381415 L130.23622047244095 344.9804308041855 L162.36220472440945 361.02655110005304 L194.48818897637796 291.31631169686506 " fill="none" stroke="#d62728" stroke-width="2"/><circle cx="70" cy="400" r="3" fill="#d62728"/><circle cx="74.01574803149606" cy="400" r="3" fill="#d62728"/><circle cx="82.04724409448819" cy="325.66548758678493" r="3" fill="#d62728"/><circle cx="98.11023622047244" cy="360.38048357513077" r="3" fill="#d62728"/><circle cx="114.1732283464567" cy="350.3095641381415" r="3" fill="#d62728"/><circle cx="130.23622047244095" cy="344.9804308041855" r="3" fill="#d62728"/><circle cx="162.36220472440945" cy="361.02655110005304" r="3" fill="#d62728"/><circle cx="194.48818897637796" cy="291.31631169686506" r="3" fill="#d62728"/><line x1="596" y1="364" x2="614" y2="364" stroke="#d62728" stroke-width="2"/><text x="620" y="368">placement_pinned</text><path d="M130.23622047244095 358.6414688051606 L162.36220472440945 356.5809481616304 L194.48818897637796 400 " fill="none" stroke="#2ca02c" stroke-width="2"/><circle cx="130.23622047244095" cy="358.6414688051606" r="3" fill="#2ca02c"/><circle cx="162.36220472440945" cy="356.5809481616304" r="3" fill="#2ca02c"/><circle cx="194.48818897637796" cy="400" r="3" fill="#2ca02c"/><line x1="596" y1="382" x2="614" y2="382" stroke="#2ca02c" stroke-width="2"/><text x="620" y="386">rps_on</text><path d="M130.23622047244095 357.99644264045054 L162.36220472440945 381.0736985857025 L194.48818897637796 400 " fill="none" stroke="#9467bd" stroke-width="2"/><circle cx="130.23622047244095" cy="357.99644264045054" r="3" fill="#9467bd"/><circle cx="162.36220472440945" cy="381.0736985857025" r="3" fill="#9467bd"/><circle cx="194.48818897637796" cy="400" r="3" fill="#9467bd"/><line x1="596" y1="400" x2="614" y2="400" stroke="#9467bd" stroke-width="2"/><text x="620" y="404">split</text><path d="M194.48818897637796 368.9261807767886 L226.61417322834646 377.65265190307133 L258.74015748031496 400 L322.99212598425197 382.93213002700713 " fill="none" stroke="#ff7f0e" stroke-width="2"/><circle cx="194.48818897637796" cy="368.9261807767886" r="3" fill="#ff7f0e"/><circle cx="226.61417322834646" cy="377.65265190307133" r="3" fill="#ff7f0e"/><circle cx="258.74015748031496" cy="400" r="3" fill="#ff7f0e"/><circle cx="322.99212598425197" cy="382.93213002700713" r="3" fill="#ff7f0e"/><line x1="596" y1="418" x2="614" y2="418" stroke="#ff7f0e" stroke-width="2"/><text x="620" y="422">split64</text><path d="M226.61417322834646 81.81818181818187 " fill="none" stroke="#17becf" stroke-width="2"/><circle cx="226.61417322834646" cy="81.81818181818187" r="3" fill="#17becf"/><line x1="596" y1="436" x2="614" y2="436" stroke="#17becf" stroke-width="2"/><text x="620" y="440">uni_rings1024</text><path d="M226.61417322834646 392.3708375103606 " fill="none" stroke="#8c564b" stroke-width="2"/><circle cx="226.61417322834646" cy="392.3708375103606" r="3" fill="#8c564b"/><line x1="596" y1="454" x2="614" y2="454" stroke="#8c564b" stroke-width="2"/><text x="620" y="458">uni_ringsmax</text><path d="M194.48818897637796 375.97002892867715 L226.61417322834646 389.95923592161114 L258.74015748031496 393.43554239089804 L322.99212598425197 394.48897279521105 L451.496062992126 400 L580 400 " fill="none" stroke="#e377c2" stroke-width="2"/><circle cx="194.48818897637796" cy="375.97002892867715" r="3" fill="#e377c2"/><circle cx="226.61417322834646" cy="389.95923592161114" r="3" fill="#e377c2"/><circle cx="258.74015748031496" cy="393.43554239089804" r="3" fill="#e377c2"/><circle cx="322.99212598425197" cy="394.48897279521105" r="3" fill="#e377c2"/><circle cx="451.496062992126" cy="400" r="3" fill="#e377c2"/><circle cx="580" cy="400" r="3" fill="#e377c2"/><line x1="596" y1="472" x2="614" y2="472" stroke="#e377c2" stroke-width="2"/><text x="620" y="476">uni_split</text><path d="M451.496062992126 400 " fill="none" stroke="#1f77b4" stroke-width="2"/><circle cx="451.496062992126" cy="400" r="3" fill="#1f77b4"/><line x1="596" y1="490" x2="614" y2="490" stroke="#1f77b4" stroke-width="2"/><text x="620" y="494">uni_split96</text></svg>