<svg xmlns="http://www.w3.org/2000/svg" width="760" height="460" font-family="sans-serif" font-size="12"><rect width="760" height="460" fill="white"/><text x="70" y="24" font-size="16" font-weight="bold">Per-core crypto efficiency vs tunnel count</text><line x1="70" y1="50" x2="70" y2="400" stroke="#333"/><line x1="70" y1="400" x2="580" y2="400" stroke="#333"/><line x1="70" y1="400" x2="580" y2="400" stroke="#eee"/><text x="62" y="404" text-anchor="end">0</text><line x1="70" y1="330" x2="580" y2="330" stroke="#eee"/><text x="62" y="334" text-anchor="end">25</text><line x1="70" y1="260" x2="580" y2="260" stroke="#eee"/><text x="62" y="264" text-anchor="end">50</text><line x1="70" y1="190" x2="580" y2="190" stroke="#eee"/><text x="62" y="194" text-anchor="end">75</text><line x1="70" y1="119.99999999999999" x2="580" y2="119.99999999999999" stroke="#eee"/><text x="62" y="123.99999999999999" text-anchor="end">99</text><line x1="70" y1="50" x2="580" y2="50" stroke="#eee"/><text x="62" y="54" text-anchor="end">124</text><text x="70" y="418" text-anchor="middle">1</text><text x="78.09523809523809" y="418" text-anchor="middle">2</text><text x="94.28571428571428" y="418" text-anchor="middle">4</text><text x="126.66666666666666" y="418" text-anchor="middle">8</text><text x="159.04761904761904" y="418" text-anchor="middle">12</text><text x="191.42857142857142" y="418" text-anchor="middle">16</text><text x="256.1904761904762" y="418" text-anchor="middle">24</text><text x="320.95238095238096" y="418" text-anchor="middle">32</text><text x="385.7142857142857" y="418" text-anchor="middle">40</text><text x="450.4761904761905" y="418" text-anchor="middle">48</text><text x="580" y="418" text-anchor="middle">64</text><text x="325" y="442" text-anchor="middle">tunnels (N)</text><text x="18" y="225" text-anchor="middle" transform="rotate(-90 18 225)">Gbps / busy core</text><path d="M191.42857142857142 367.83308789000034 L256.1904761904762 357.32783787449324 L320.95238095238096 375.20661886893885 " fill="none" stroke="#1f77b4" stroke-width="2"/><circle cx="191.42857142857142" cy="367.83308789000034" r="3" fill="#1f77b4"/><circle cx="256.1904761904762" cy="357.32783787449324" r="3" fill="#1f77b4"/><circle cx="320.95238095238096" cy="375.20661886893885" r="3" fill="#1f77b4"/><line x1="596" y1="58" x2="614" y2="58" stroke="#1f77b4" stroke-width="2"/><text x="620" y="62">align</text><path d="M320.95238095238096 317.2070229735648 " fill="none" stroke="#d62728" stroke-width="2"/><circle cx="320.95238095238096" cy="317.2070229735648" r="3" fill="#d62728"/><line x1="596" y1="76" x2="614" y2="76" stroke="#d62728" stroke-width="2"/><text x="620" y="80">bidir_split</text><path d="M70 400 L78.09523809523809 400 L94.28571428571428 400 L126.66666666666666 400 L159.04761904761904 245.88898106378574 L191.42857142857142 243.68401402002553 L256.1904761904762 243.1221658999621 L320.95238095238096 234.6141350166389 " fill="none" stroke="#2ca02c" stroke-width="2"/><circle cx="70" cy="400" r="3" fill="#2ca02c"/><circle cx="78.09523809523809" cy="400" r="3" fill="#2ca02c"/><circle cx="94.28571428571428" cy="400" r="3" fill="#2ca02c"/><circle cx="126.66666666666666" cy="400" r="3" fill="#2ca02c"/><circle cx="159.04761904761904" cy="245.88898106378574" r="3" fill="#2ca02c"/><circle cx="191.42857142857142" cy="243.68401402002553" r="3" fill="#2ca02c"/><circle cx="256.1904761904762" cy="243.1221658999621" r="3" fill="#2ca02c"/><circle cx="320.95238095238096" cy="234.6141350166389" r="3" fill="#2ca02c"/><line x1="596" y1="94" x2="614" y2="94" stroke="#2ca02c" stroke-width="2"/><text x="620" y="98">ena_express</text><path d="M126.66666666666666 370.97233022684526 L191.42857142857142 209.6050558935124 L256.1904761904762 240.16845192617538 L320.95238095238096 231.74851064620725 " fill="none" stroke="#9467bd" stroke-width="2"/><circle cx="126.66666666666666" cy="370.97233022684526" r="3" fill="#9467bd"/><circle cx="191.42857142857142" cy="209.6050558935124" r="3" fill="#9467bd"/><circle cx="256.1904761904762" cy="240.16845192617538" r="3" fill="#9467bd"/><circle cx="320.95238095238096" cy="231.74851064620725" r="3" fill="#9467bd"/><line x1="596" y1="112" x2="614" y2="112" stroke="#9467bd" stroke-width="2"/><text x="620" y="116">irqlocal_unpinned</text><path d="M126.66666666666666 373.3702056231482 L191.42857142857142 384.1448515584228 L256.1904761904762 391.8199448891631 L320.95238095238096 382.67381494252794 " fill="none" stroke="#ff7f0e" stroke-width="2"/><circle cx="126.66666666666666" cy="373.3702056231482" r="3" fill="#ff7f0e"/><circle cx="191.42857142857142" cy="384.1448515584228" r="3" fill="#ff7f0e"/><circle cx="256.1904761904762" cy="391.8199448891631" r="3" fill="#ff7f0e"/><circle cx="320.95238095238096" cy="382.67381494252794" r="3" fill="#ff7f0e"/><line x1="596" y1="130" x2="614" y2="130" stroke="#ff7f0e" stroke-width="2"/><text x="620" y="134">irqlocal_userN0</text><path d="M126.66666666666666 372.3482047016663 L191.42857142857142 357.72861852086805 L256.1904761904762 363.802180171668 L320.95238095238096 375.1080919607495 " fill="none" stroke="#17becf" stroke-width="2"/><circle cx="126.66666666666666" cy="372.3482047016663" r="3" fill="#17becf"/><circle cx="191.42857142857142" cy="357.72861852086805" r="3" fill="#17becf"/><circle cx="256.1904761904762" cy="363.802180171668" r="3" fill="#17becf"/><circle cx="320.95238095238096" cy="375.1080919607495" r="3" fill="#17becf"/><line x1="596" y1="148" x2="614" y2="148" stroke="#17becf" stroke-width="2"/><text x="620" y="152">irqlocal_userN1</text><path d="M126.66666666666666 249.98794339640835 L191.42857142857142 313.6260229351 L256.1904761904762 333.54622701664107 L320.95238095238096 346.7445001912353 " fill="none" stroke="#8c564b" stroke-width="2"/><circle cx="126.66666666666666" cy="249.98794339640835" r="3" fill="#8c564b"/><circle cx="191.42857142857142" cy="313.6260229351" r="3" fill="#8c564b"/><circle cx="256.1904761904762" cy="333.54622701664107" r="3" fill="#8c564b"/><circle cx="320.95238095238096" cy="346.7445001912353" r="3" fill="#8c564b"/><line x1="596" y1="166" x2="614" y2="166" stroke="#8c564b" stroke-width="2"/><text x="620" y="170">numa_node0</text><path d="M126.66666666666666 400 L191.42857142857142 382.08065286315303 L256.1904761904762 400 L320.95238095238096 320.68892172725964 " fill="none" stroke="#e377c2" stroke-width="2"/><circle cx="126.66666666666666" cy="400" r="3" fill="#e377c2"/><circle cx="191.42857142857142" cy="382.08065286315303" r="3" fill="#e377c2"/><circle cx="256.1904761904762" cy="400" r="3" fill="#e377c2"/><circle cx="320.95238095238096" cy="320.68892172725964" r="3" fill="#e377c2"/><line x1="596" y1="184" x2="614" y2="184" stroke="#e377c2" stroke-width="2"/><text x="620" y="188">numa_node1</text><path d="M320.95238095238096 237.05443619615025 " fill="none" stroke="#1f77b4" stroke-width="2"/><circle cx="320.95238095238096" cy="237.05443619615025" r="3" fill="#1f77b4"/><line x1="596" y1="202" x2="614" y2="202" stroke="#1f77b4" stroke-width="2"/><text x="620" y="206">nvme_tcp_balanced_read</text><path d="M320.95238095238096 400 " fill="none" stroke="#d62728" stroke-width="2"/><circle cx="320.95238095238096" cy="400" r="3" fill="#d62728"/><line x1="596" y1="220" x2="614" y2="220" stroke="#d62728" stroke-width="2"/><text x="620" y="224">nvme_tcp_balanced_write</text><path d="M320.95238095238096 400 " fill="none" stroke="#2ca02c" stroke-width="2"/><circle cx="320.95238095238096" cy="400" r="3" fill="#2ca02c"/><line x1="596" y1="238" x2="614" y2="238" stroke="#2ca02c" stroke-width="2"/><text x="620" y="242">nvme_tcp_far_read</text><path d="M320.95238095238096 400 " fill="none" stroke="#9467bd" stroke-width="2"/><circle cx="320.95238095238096" cy="400" r="3" fill="#9467bd"/><line x1="596" y1="256" x2="614" y2="256" stroke="#9467bd" stroke-width="2"/><text x="620" y="260">nvme_tcp_far_write</text><path d="M320.95238095238096 400 " fill="none" stroke="#ff7f0e" stroke-width="2"/><circle cx="320.95238095238096" cy="400" r="3" fill="#ff7f0e"/><line x1="596" y1="274" x2="614" y2="274" stroke="#ff7f0e" stroke-width="2"/><text x="620" y="278">nvme_tcp_near_read</text><path d="M320.95238095238096 400 " fill="none" stroke="#17becf" stroke-width="2"/><circle cx="320.95238095238096" cy="400" r="3" fill="#17becf"/><line x1="596" y1="292" x2="614" y2="292" stroke="#17becf" stroke-width="2"/><text x="620" y="296">nvme_tcp_near_write</text><path d="M126.66666666666666 400 L191.42857142857142 199.30855941570516 L320.95238095238096 210.98504006777475 " fill="none" stroke="#8c564b" stroke-width="2"/><circle cx="126.66666666666666" cy="400" r="3" fill="#8c564b"/><circle cx="191.42857142857142" cy="199.30855941570516" r="3" fill="#8c564b"/><circle cx="320.95238095238096" cy="210.98504006777475" r="3" fill="#8c564b"/><line x1="596" y1="310" x2="614" y2="310" stroke="#8c564b" stroke-width="2"/><text x="620" y="314">nvme_tcp_placement_read</text><path d="M126.66666666666666 400 L191.42857142857142 400 L320.95238095238096 212.284558422879 " fill="none" stroke="#e377c2" stroke-width="2"/><circle cx="126.66666666666666" cy="400" r="3" fill="#e377c2"/><circle cx="191.42857142857142" cy="400" r="3" fill="#e377c2"/><circle cx="320.95238095238096" cy="212.284558422879" r="3" fill="#e377c2"/><line x1="596" y1="328" x2="614" y2="328" stroke="#e377c2" stroke-width="2"/><text x="620" y="332">nvme_tcp_placement_write</text><path d="M70 400 L78.09523809523809 400 L94.28571428571428 400 L126.66666666666666 400 L159.04761904761904 242.26991692619572 L191.42857142857142 244.25277184650403 L256.1904761904762 242.89627320996354 L320.95238095238096 231.233834694622 " fill="none" stroke="#1f77b4" stroke-width="2"/><circle cx="70" cy="400" r="3" fill="#1f77b4"/><circle cx="78.09523809523809" cy="400" r="3" fill="#1f77b4"/><circle cx="94.28571428571428" cy="400" r="3" fill="#1f77b4"/><circle cx="126.66666666666666" cy="400" r="3" fill="#1f77b4"/><circle cx="159.04761904761904" cy="242.26991692619572" r="3" fill="#1f77b4"/><circle cx="191.42857142857142" cy="244.25277184650403" r="3" fill="#1f77b4"/><circle cx="256.1904761904762" cy="242.89627320996354" r="3" fill="#1f77b4"/><circle cx="320.95238095238096" cy="231.233834694622" r="3" fill="#1f77b4"/><line x1="596" y1="346" x2="614" y2="346" stroke="#1f77b4" stroke-width="2"/><text x="620" y="350">placement</text><path d="M70 400 L78.09523809523809 400 L94.28571428571428 325.66548758678493 L126.66666666666666 360.38048357513077 L159.04761904761904 350.3095641381415 L191.42857142857142 344.9804308041855 L256.1904761904762 361.02655110005304 L320.95238095238096 291.31631169686506 " fill="none" stroke="#d62728" stroke-width="2"/><circle cx="70" cy="400" r="3" fill="#d62728"/><circle cx="78.09523809523809" cy="400" r="3" fill="#d62728"/><circle cx="94.28571428571428" cy="325.66548758678493" r="3" fill="#d62728"/><circle cx="126.66666666666666" cy="360.38048357513077" r="3" fill="#d62728"/><circle cx="159.04761904761904" cy="350.3095641381415" r="3" fill="#d62728"/><circle cx="191.42857142857142" cy="344.9804308041855" r="3" fill="#d62728"/><circle cx="256.1904761904762" cy="361.02655110005304" r="3" fill="#d62728"/><circle cx="320.95238095238096" cy="291.31631169686506" r="3" fill="#d62728"/><line x1="596" y1="364" x2="614" y2="364" stroke="#d62728" stroke-width="2"/><text x="620" y="368">placement_pinned</text><path d="M191.42857142857142 358.6414688051606 L256.1904761904762 356.5809481616304 L320.95238095238096 400 " fill="none" stroke="#2ca02c" stroke-width="2"/><circle cx="191.42857142857142" cy="358.6414688051606" r="3" fill="#2ca02c"/><circle cx="256.1904761904762" cy="356.5809481616304" r="3" fill="#2ca02c"/><circle cx="320.95238095238096" cy="400" r="3" fill="#2ca02c"/><line x1="596" y1="382" x2="614" y2="382" stroke="#2ca02c" stroke-width="2"/><text x="620" y="386">rps_on</text><path d="M191.42857142857142 357.99644264045054 L256.1904761904762 381.0736985857025 L320.95238095238096 400 " fill="none" stroke="#9467bd" stroke-width="2"/><circle cx="191.42857142857142" cy="357.99644264045054" r="3" fill="#9467bd"/><circle cx="256.1904761904762" cy="381.0736985857025" r="3" fill="#9467bd"/><circle cx="320.95238095238096" cy="400" r="3" fill="#9467bd"/><line x1="596" y1="400" x2="614" y2="400" stroke="#9467bd" stroke-width="2"/><text x="620" y="404">split</text><path d="M320.95238095238096 368.9261807767886 L385.7142857142857 377.65265190307133 L450.4761904761905 400 L580 382.93213002700713 " fill="none" stroke="#ff7f0e" stroke-width="2"/><circle cx="320.95238095238096" cy="368.9261807767886" r="3" fill="#ff7f0e"/><circle cx="385.7142857142857" cy="377.65265190307133" r="3" fill="#ff7f0e"/><circle cx="450.4761904761905" cy="400" r="3" fill="#ff7f0e"/><circle cx="580" cy="382.93213002700713" r="3" fill="#ff7f0e"/><line x1="596" y1="418" x2="614" y2="418" stroke="#ff7f0e" stroke-width="2"/><text x="620" y="422">split64</text><path d="M385.7142857142857 81.81818181818187 " fill="none" stroke="#17becf" stroke-width="2"/><circle cx="385.7142857142857" cy="81.81818181818187" r="3" fill="#17becf"/><line x1="596" y1="436" x2="614" y2="436" stroke="#17becf" stroke-width="2"/><text x="620" y="440">uni_rings1024</text><path d="M385.7142857142857 392.3708375103606 " fill="none" stroke="#8c564b" stroke-width="2"/><circle cx="385.7142857142857" cy="392.3708375103606" r="3" fill="#8c564b"/><line x1="596" y1="454" x2="614" y2="454" stroke="#8c564b" stroke-width="2"/><text x="620" y="458">uni_ringsmax</text></svg>