<svg xmlns="http://www.w3.org/2000/svg" width="760" height="460" font-family="sans-serif" font-size="12"><rect width="760" height="460" fill="white"/><text x="70" y="24" font-size="16" font-weight="bold">Aggregate throughput vs tunnel count</text><line x1="70" y1="50" x2="70" y2="400" stroke="#333"/><line x1="70" y1="400" x2="580" y2="400" stroke="#333"/><line x1="70" y1="400" x2="580" y2="400" stroke="#eee"/><text x="62" y="404" text-anchor="end">0</text><line x1="70" y1="330" x2="580" y2="330" stroke="#eee"/><text x="62" y="334" text-anchor="end">40</text><line x1="70" y1="260" x2="580" y2="260" stroke="#eee"/><text x="62" y="264" text-anchor="end">79</text><line x1="70" y1="189.99999999999997" x2="580" y2="189.99999999999997" stroke="#eee"/><text x="62" y="193.99999999999997" text-anchor="end">119</text><line x1="70" y1="119.99999999999999" x2="580" y2="119.99999999999999" stroke="#eee"/><text x="62" y="123.99999999999999" text-anchor="end">158</text><line x1="70" y1="50" x2="580" y2="50" stroke="#eee"/><text x="62" y="54" text-anchor="end">198</text><text x="70" y="418" text-anchor="middle">1</text><text x="86.45161290322581" y="418" text-anchor="middle">2</text><text x="119.35483870967742" y="418" text-anchor="middle">4</text><text x="185.16129032258064" y="418" text-anchor="middle">8</text><text x="250.96774193548387" y="418" text-anchor="middle">12</text><text x="316.77419354838713" y="418" text-anchor="middle">16</text><text x="448.38709677419354" y="418" text-anchor="middle">24</text><text x="580" y="418" text-anchor="middle">32</text><text x="325" y="442" text-anchor="middle">tunnels (N)</text><text x="18" y="225" text-anchor="middle" transform="rotate(-90 18 225)">Gbps</text><line x1="70" y1="81.81818181818187" x2="580" y2="81.81818181818187" stroke="#999" stroke-dasharray="6 4"/><text x="580" y="76.81818181818187" text-anchor="end" fill="#777">~180 Gbps wall</text><path d="M70 386.0570934439885 L86.45161290322581 372.2648724564689 L119.35483870967742 350.8909222913045 L185.16129032258064 319.5001577243202 L250.96774193548387 303.24340672765163 L316.77419354838713 301.85904692713444 L448.38709677419354 301.50629791276117 L580 296.16464168721245 " fill="none" stroke="#1f77b4" stroke-width="2"/><circle cx="70" cy="386.0570934439885" r="3" fill="#1f77b4"/><circle cx="86.45161290322581" cy="372.2648724564689" r="3" fill="#1f77b4"/><circle cx="119.35483870967742" cy="350.8909222913045" r="3" fill="#1f77b4"/><circle cx="185.16129032258064" cy="319.5001577243202" r="3" fill="#1f77b4"/><circle cx="250.96774193548387" cy="303.24340672765163" r="3" fill="#1f77b4"/><circle cx="316.77419354838713" cy="301.85904692713444" r="3" fill="#1f77b4"/><circle cx="448.38709677419354" cy="301.50629791276117" r="3" fill="#1f77b4"/><circle cx="580" cy="296.16464168721245" r="3" fill="#1f77b4"/><line x1="596" y1="58" x2="614" y2="58" stroke="#1f77b4" stroke-width="2"/><text x="620" y="62">ena_express</text><path d="M185.16129032258064 307.3694392787792 L316.77419354838713 284.98223922936853 L448.38709677419354 274.1772788960652 " fill="none" stroke="#d62728" stroke-width="2"/><circle cx="185.16129032258064" cy="307.3694392787792" r="3" fill="#d62728"/><circle cx="316.77419354838713" cy="284.98223922936853" r="3" fill="#d62728"/><circle cx="448.38709677419354" cy="274.1772788960652" r="3" fill="#d62728"/><line x1="596" y1="76" x2="614" y2="76" stroke="#d62728" stroke-width="2"/><text x="620" y="80">irqlocal_userN1</text><path d="M185.16129032258064 305.81688676816964 L316.77419354838713 291.54245003541644 L448.38709677419354 274.83359603328995 L580 266.2569160834633 " fill="none" stroke="#2ca02c" stroke-width="2"/><circle cx="185.16129032258064" cy="305.81688676816964" r="3" fill="#2ca02c"/><circle cx="316.77419354838713" cy="291.54245003541644" r="3" fill="#2ca02c"/><circle cx="448.38709677419354" cy="274.83359603328995" r="3" fill="#2ca02c"/><circle cx="580" cy="266.2569160834633" r="3" fill="#2ca02c"/><line x1="596" y1="94" x2="614" y2="94" stroke="#2ca02c" stroke-width="2"/><text x="620" y="98">numa_node0</text><path d="M185.16129032258064 301.2451338779968 L316.77419354838713 298.7461444915119 L448.38709677419354 299.30714771299137 L580 300.41114781541876 " fill="none" stroke="#9467bd" stroke-width="2"/><circle cx="185.16129032258064" cy="301.2451338779968" r="3" fill="#9467bd"/><circle cx="316.77419354838713" cy="298.7461444915119" r="3" fill="#9467bd"/><circle cx="448.38709677419354" cy="299.30714771299137" r="3" fill="#9467bd"/><circle cx="580" cy="300.41114781541876" r="3" fill="#9467bd"/><line x1="596" y1="112" x2="614" y2="112" stroke="#9467bd" stroke-width="2"/><text x="620" y="116">numa_node1</text><path d="M580 278.910177179798 " fill="none" stroke="#ff7f0e" stroke-width="2"/><circle cx="580" cy="278.910177179798" r="3" fill="#ff7f0e"/><line x1="596" y1="130" x2="614" y2="130" stroke="#ff7f0e" stroke-width="2"/><text x="620" y="134">nvme_tcp_near_write</text><path d="M185.16129032258064 312.0287058242424 L316.77419354838713 273.99849651313133 L580 281.3294226020202 " fill="none" stroke="#17becf" stroke-width="2"/><circle cx="185.16129032258064" cy="312.0287058242424" r="3" fill="#17becf"/><circle cx="316.77419354838713" cy="273.99849651313133" r="3" fill="#17becf"/><circle cx="580" cy="281.3294226020202" r="3" fill="#17becf"/><line x1="596" y1="148" x2="614" y2="148" stroke="#17becf" stroke-width="2"/><text x="620" y="152">nvme_tcp_placement_read</text><path d="M185.16129032258064 309.50733553535355 L316.77419354838713 295.7608161555556 L580 282.1453082525253 " fill="none" stroke="#8c564b" stroke-width="2"/><circle cx="185.16129032258064" cy="309.50733553535355" r="3" fill="#8c564b"/><circle cx="316.77419354838713" cy="295.7608161555556" r="3" fill="#8c564b"/><circle cx="580" cy="282.1453082525253" r="3" fill="#8c564b"/><line x1="596" y1="166" x2="614" y2="166" stroke="#8c564b" stroke-width="2"/><text x="620" y="170">nvme_tcp_placement_write</text><path d="M70 386.05287025385496 L86.45161290322581 372.16403429541856 L119.35483870967742 348.473208755262 L185.16129032258064 315.1108119983616 L250.96774193548387 300.9712245098942 L316.77419354838713 302.21613411056177 L448.38709677419354 301.36447413351254 L580 294.0423642170262 " fill="none" stroke="#e377c2" stroke-width="2"/><circle cx="70" cy="386.05287025385496" r="3" fill="#e377c2"/><circle cx="86.45161290322581" cy="372.16403429541856" r="3" fill="#e377c2"/><circle cx="119.35483870967742" cy="348.473208755262" r="3" fill="#e377c2"/><circle cx="185.16129032258064" cy="315.1108119983616" r="3" fill="#e377c2"/><circle cx="250.96774193548387" cy="300.9712245098942" r="3" fill="#e377c2"/><circle cx="316.77419354838713" cy="302.21613411056177" r="3" fill="#e377c2"/><circle cx="448.38709677419354" cy="301.36447413351254" r="3" fill="#e377c2"/><circle cx="580" cy="294.0423642170262" r="3" fill="#e377c2"/><line x1="596" y1="184" x2="614" y2="184" stroke="#e377c2" stroke-width="2"/><text x="620" y="188">placement</text><path d="M70 386.05745018633087 L86.45161290322581 372.3610193543195 L119.35483870967742 353.3300458765985 L185.16129032258064 325.37621003035144 L250.96774193548387 306.4075237695721 L316.77419354838713 296.3700431913447 L448.38709677419354 277.6551420637355 L580 263.52872757479366 " fill="none" stroke="#1f77b4" stroke-width="2"/><circle cx="70" cy="386.05745018633087" r="3" fill="#1f77b4"/><circle cx="86.45161290322581" cy="372.3610193543195" r="3" fill="#1f77b4"/><circle cx="119.35483870967742" cy="353.3300458765985" r="3" fill="#1f77b4"/><circle cx="185.16129032258064" cy="325.37621003035144" r="3" fill="#1f77b4"/><circle cx="250.96774193548387" cy="306.4075237695721" r="3" fill="#1f77b4"/><circle cx="316.77419354838713" cy="296.3700431913447" r="3" fill="#1f77b4"/><circle cx="448.38709677419354" cy="277.6551420637355" r="3" fill="#1f77b4"/><circle cx="580" cy="263.52872757479366" r="3" fill="#1f77b4"/><line x1="596" y1="202" x2="614" y2="202" stroke="#1f77b4" stroke-width="2"/><text x="620" y="206">placement_pinned</text></svg>