<svg xmlns="http://www.w3.org/2000/svg" width="760" height="460" font-family="sans-serif" font-size="12"><rect width="760" height="460" fill="white"/><text x="70" y="24" font-size="16" font-weight="bold">Aggregate throughput vs tunnel count</text><line x1="70" y1="50" x2="70" y2="400" stroke="#333"/><line x1="70" y1="400" x2="580" y2="400" stroke="#333"/><line x1="70" y1="400" x2="580" y2="400" stroke="#eee"/><text x="62" y="404" text-anchor="end">0</text><line x1="70" y1="330" x2="580" y2="330" stroke="#eee"/><text x="62" y="334" text-anchor="end">40</text><line x1="70" y1="260" x2="580" y2="260" stroke="#eee"/><text x="62" y="264" text-anchor="end">79</text><line x1="70" y1="189.99999999999997" x2="580" y2="189.99999999999997" stroke="#eee"/><text x="62" y="193.99999999999997" text-anchor="end">119</text><line x1="70" y1="119.99999999999999" x2="580" y2="119.99999999999999" stroke="#eee"/><text x="62" y="123.99999999999999" text-anchor="end">158</text><line x1="70" y1="50" x2="580" y2="50" stroke="#eee"/><text x="62" y="54" text-anchor="end">198</text><text x="70" y="418" text-anchor="middle">1</text><text x="74.01574803149606" y="418" text-anchor="middle">2</text><text x="82.04724409448819" y="418" text-anchor="middle">4</text><text x="98.11023622047244" y="418" text-anchor="middle">8</text><text x="114.1732283464567" y="418" text-anchor="middle">12</text><text x="130.23622047244095" y="418" text-anchor="middle">16</text><text x="162.36220472440945" y="418" text-anchor="middle">24</text><text x="194.48818897637796" y="418" text-anchor="middle">32</text><text x="226.61417322834646" y="418" text-anchor="middle">40</text><text x="258.74015748031496" y="418" text-anchor="middle">48</text><text x="322.99212598425197" y="418" text-anchor="middle">64</text><text x="451.496062992126" y="418" text-anchor="middle">96</text><text x="580" y="418" text-anchor="middle">128</text><text x="325" y="442" text-anchor="middle">tunnels (N)</text><text x="18" y="225" text-anchor="middle" transform="rotate(-90 18 225)">Gbps</text><line x1="70" y1="81.81818181818187" x2="580" y2="81.81818181818187" stroke="#999" stroke-dasharray="6 4"/><text x="580" y="76.81818181818187" text-anchor="end" fill="#777">~180 Gbps wall</text><path d="M130.23622047244095 278.8265425793023 L162.36220472440945 266.04419776958775 L194.48818897637796 259.9041911828789 " fill="none" stroke="#1f77b4" stroke-width="2"/><circle cx="130.23622047244095" cy="278.8265425793023" r="3" fill="#1f77b4"/><circle cx="162.36220472440945" cy="266.04419776958775" r="3" fill="#1f77b4"/><circle cx="194.48818897637796" cy="259.9041911828789" r="3" fill="#1f77b4"/><line x1="596" y1="58" x2="614" y2="58" stroke="#1f77b4" stroke-width="2"/><text x="620" y="62">align</text><path d="M194.48818897637796 137.72093697447397 L226.61417322834646 147.52167139149242 L258.74015748031496 166.37203209584072 L322.99212598425197 174.7531487041742 " fill="none" stroke="#d62728" stroke-width="2"/><circle cx="194.48818897637796" cy="137.72093697447397" r="3" fill="#d62728"/><circle cx="226.61417322834646" cy="147.52167139149242" r="3" fill="#d62728"/><circle cx="258.74015748031496" cy="166.37203209584072" r="3" fill="#d62728"/><circle cx="322.99212598425197" cy="174.7531487041742" r="3" fill="#d62728"/><line x1="596" y1="76" x2="614" y2="76" stroke="#d62728" stroke-width="2"/><text x="620" y="80">bidir_split</text><path d="M70 386.0570934439885 L74.01574803149606 372.2648724564689 L82.04724409448819 350.8909222913045 L98.11023622047244 319.5001577243202 L114.1732283464567 303.24340672765163 L130.23622047244095 301.85904692713444 L162.36220472440945 301.50629791276117 L194.48818897637796 296.16464168721245 " fill="none" stroke="#2ca02c" stroke-width="2"/><circle cx="70" cy="386.0570934439885" r="3" fill="#2ca02c"/><circle cx="74.01574803149606" cy="372.2648724564689" r="3" fill="#2ca02c"/><circle cx="82.04724409448819" cy="350.8909222913045" r="3" fill="#2ca02c"/><circle cx="98.11023622047244" cy="319.5001577243202" r="3" fill="#2ca02c"/><circle cx="114.1732283464567" cy="303.24340672765163" r="3" fill="#2ca02c"/><circle cx="130.23622047244095" cy="301.85904692713444" r="3" fill="#2ca02c"/><circle cx="162.36220472440945" cy="301.50629791276117" r="3" fill="#2ca02c"/><circle cx="194.48818897637796" cy="296.16464168721245" r="3" fill="#2ca02c"/><line x1="596" y1="94" x2="614" y2="94" stroke="#2ca02c" stroke-width="2"/><text x="620" y="98">ena_express</text><path d="M98.11023622047244 327.10142448548345 L130.23622047244095 280.4630175364185 L162.36220472440945 299.6518471176313 L194.48818897637796 294.3654968006554 " fill="none" stroke="#9467bd" stroke-width="2"/><circle cx="98.11023622047244" cy="327.10142448548345" r="3" fill="#9467bd"/><circle cx="130.23622047244095" cy="280.4630175364185" r="3" fill="#9467bd"/><circle cx="162.36220472440945" cy="299.6518471176313" r="3" fill="#9467bd"/><circle cx="194.48818897637796" cy="294.3654968006554" r="3" fill="#9467bd"/><line x1="596" y1="112" x2="614" y2="112" stroke="#9467bd" stroke-width="2"/><text x="620" y="116">irqlocal_unpinned</text><path d="M98.11023622047244 333.1233236602306 L130.23622047244095 300.4555183903271 L162.36220472440945 302.4209226271334 L194.48818897637796 302.09782616939185 " fill="none" stroke="#ff7f0e" stroke-width="2"/><circle cx="98.11023622047244" cy="333.1233236602306" r="3" fill="#ff7f0e"/><circle cx="130.23622047244095" cy="300.4555183903271" r="3" fill="#ff7f0e"/><circle cx="162.36220472440945" cy="302.4209226271334" r="3" fill="#ff7f0e"/><circle cx="194.48818897637796" cy="302.09782616939185" r="3" fill="#ff7f0e"/><line x1="596" y1="130" x2="614" y2="130" stroke="#ff7f0e" stroke-width="2"/><text x="620" y="134">irqlocal_userN0</text><path d="M98.11023622047244 330.5567238631137 L130.23622047244095 267.3023222781529 L162.36220472440945 263.64202554814267 L194.48818897637796 259.34746167430285 " fill="none" stroke="#17becf" stroke-width="2"/><circle cx="98.11023622047244" cy="330.5567238631137" r="3" fill="#17becf"/><circle cx="130.23622047244095" cy="267.3023222781529" r="3" fill="#17becf"/><circle cx="162.36220472440945" cy="263.64202554814267" r="3" fill="#17becf"/><circle cx="194.48818897637796" cy="259.34746167430285" r="3" fill="#17becf"/><line x1="596" y1="148" x2="614" y2="148" stroke="#17becf" stroke-width="2"/><text x="620" y="152">irqlocal_userN1</text><path d="M98.11023622047244 305.81688676816964 L130.23622047244095 291.54245003541644 L162.36220472440945 274.83359603328995 L194.48818897637796 266.2569160834633 " fill="none" stroke="#8c564b" stroke-width="2"/><circle cx="98.11023622047244" cy="305.81688676816964" r="3" fill="#8c564b"/><circle cx="130.23622047244095" cy="291.54245003541644" r="3" fill="#8c564b"/><circle cx="162.36220472440945" cy="274.83359603328995" r="3" fill="#8c564b"/><circle cx="194.48818897637796" cy="266.2569160834633" r="3" fill="#8c564b"/><line x1="596" y1="166" x2="614" y2="166" stroke="#8c564b" stroke-width="2"/><text x="620" y="170">numa_node0</text><path d="M98.11023622047244 301.2451338779968 L130.23622047244095 298.7461444915119 L162.36220472440945 299.30714771299137 L194.48818897637796 300.41114781541876 " fill="none" stroke="#e377c2" stroke-width="2"/><circle cx="98.11023622047244" cy="301.2451338779968" r="3" fill="#e377c2"/><circle cx="130.23622047244095" cy="298.7461444915119" r="3" fill="#e377c2"/><circle cx="162.36220472440945" cy="299.30714771299137" r="3" fill="#e377c2"/><circle cx="194.48818897637796" cy="300.41114781541876" r="3" fill="#e377c2"/><line x1="596" y1="184" x2="614" y2="184" stroke="#e377c2" stroke-width="2"/><text x="620" y="188">numa_node1</text><path d="M194.48818897637796 297.69675295555555 " fill="none" stroke="#1f77b4" stroke-width="2"/><circle cx="194.48818897637796" cy="297.69675295555555" r="3" fill="#1f77b4"/><line x1="596" y1="202" x2="614" y2="202" stroke="#1f77b4" stroke-width="2"/><text x="620" y="206">nvme_tcp_balanced_read</text><path d="M194.48818897637796 289.28072439797984 " fill="none" stroke="#d62728" stroke-width="2"/><circle cx="194.48818897637796" cy="289.28072439797984" r="3" fill="#d62728"/><line x1="596" y1="220" x2="614" y2="220" stroke="#d62728" stroke-width="2"/><text x="620" y="224">nvme_tcp_balanced_write</text><path d="M194.48818897637796 294.134640810101 " fill="none" stroke="#2ca02c" stroke-width="2"/><circle cx="194.48818897637796" cy="294.134640810101" r="3" fill="#2ca02c"/><line x1="596" y1="238" x2="614" y2="238" stroke="#2ca02c" stroke-width="2"/><text x="620" y="242">nvme_tcp_far_read</text><path d="M194.48818897637796 287.59808962626266 " fill="none" stroke="#9467bd" stroke-width="2"/><circle cx="194.48818897637796" cy="287.59808962626266" r="3" fill="#9467bd"/><line x1="596" y1="256" x2="614" y2="256" stroke="#9467bd" stroke-width="2"/><text x="620" y="260">nvme_tcp_far_write</text><path d="M194.48818897637796 281.93410965454547 " fill="none" stroke="#ff7f0e" stroke-width="2"/><circle cx="194.48818897637796" cy="281.93410965454547" r="3" fill="#ff7f0e"/><line x1="596" y1="274" x2="614" y2="274" stroke="#ff7f0e" stroke-width="2"/><text x="620" y="278">nvme_tcp_near_read</text><path d="M194.48818897637796 295.93592433737376 " fill="none" stroke="#17becf" stroke-width="2"/><circle cx="194.48818897637796" cy="295.93592433737376" r="3" fill="#17becf"/><line x1="596" y1="292" x2="614" y2="292" stroke="#17becf" stroke-width="2"/><text x="620" y="296">nvme_tcp_near_write</text><path d="M98.11023622047244 312.0287058242424 L130.23622047244095 273.99849651313133 L194.48818897637796 281.3294226020202 " fill="none" stroke="#8c564b" stroke-width="2"/><circle cx="98.11023622047244" cy="312.0287058242424" r="3" fill="#8c564b"/><circle cx="130.23622047244095" cy="273.99849651313133" r="3" fill="#8c564b"/><circle cx="194.48818897637796" cy="281.3294226020202" r="3" fill="#8c564b"/><line x1="596" y1="310" x2="614" y2="310" stroke="#8c564b" stroke-width="2"/><text x="620" y="314">nvme_tcp_placement_read</text><path d="M98.11023622047244 309.50733553535355 L130.23622047244095 295.7608161555556 L194.48818897637796 282.1453082525253 " fill="none" stroke="#e377c2" stroke-width="2"/><circle cx="98.11023622047244" cy="309.50733553535355" r="3" fill="#e377c2"/><circle cx="130.23622047244095" cy="295.7608161555556" r="3" fill="#e377c2"/><circle cx="194.48818897637796" cy="282.1453082525253" r="3" fill="#e377c2"/><line x1="596" y1="328" x2="614" y2="328" stroke="#e377c2" stroke-width="2"/><text x="620" y="332">nvme_tcp_placement_write</text><path d="M70 386.05287025385496 L74.01574803149606 372.16403429541856 L82.04724409448819 348.473208755262 L98.11023622047244 315.1108119983616 L114.1732283464567 300.9712245098942 L130.23622047244095 302.21613411056177 L162.36220472440945 301.36447413351254 L194.48818897637796 294.0423642170262 " fill="none" stroke="#1f77b4" stroke-width="2"/><circle cx="70" cy="386.05287025385496" r="3" fill="#1f77b4"/><circle cx="74.01574803149606" cy="372.16403429541856" r="3" fill="#1f77b4"/><circle cx="82.04724409448819" cy="348.473208755262" r="3" fill="#1f77b4"/><circle cx="98.11023622047244" cy="315.1108119983616" r="3" fill="#1f77b4"/><circle cx="114.1732283464567" cy="300.9712245098942" r="3" fill="#1f77b4"/><circle cx="130.23622047244095" cy="302.21613411056177" r="3" fill="#1f77b4"/><circle cx="162.36220472440945" cy="301.36447413351254" r="3" fill="#1f77b4"/><circle cx="194.48818897637796" cy="294.0423642170262" r="3" fill="#1f77b4"/><line x1="596" y1="346" x2="614" y2="346" stroke="#1f77b4" stroke-width="2"/><text x="620" y="350">placement</text><path d="M70 386.05745018633087 L74.01574803149606 372.3610193543195 L82.04724409448819 353.3300458765985 L98.11023622047244 325.37621003035144 L114.1732283464567 306.4075237695721 L130.23622047244095 296.3700431913447 L162.36220472440945 277.6551420637355 L194.48818897637796 263.52872757479366 " fill="none" stroke="#d62728" stroke-width="2"/><circle cx="70" cy="386.05745018633087" r="3" fill="#d62728"/><circle cx="74.01574803149606" cy="372.3610193543195" r="3" fill="#d62728"/><circle cx="82.04724409448819" cy="353.3300458765985" r="3" fill="#d62728"/><circle cx="98.11023622047244" cy="325.37621003035144" r="3" fill="#d62728"/><circle cx="114.1732283464567" cy="306.4075237695721" r="3" fill="#d62728"/><circle cx="130.23622047244095" cy="296.3700431913447" r="3" fill="#d62728"/><circle cx="162.36220472440945" cy="277.6551420637355" r="3" fill="#d62728"/><circle cx="194.48818897637796" cy="263.52872757479366" r="3" fill="#d62728"/><line x1="596" y1="364" x2="614" y2="364" stroke="#d62728" stroke-width="2"/><text x="620" y="368">placement_pinned</text><path d="M130.23622047244095 270.16792800464543 L162.36220472440945 263.69957294439337 L194.48818897637796 260.3862778233068 " fill="none" stroke="#2ca02c" stroke-width="2"/><circle cx="130.23622047244095" cy="270.16792800464543" r="3" fill="#2ca02c"/><circle cx="162.36220472440945" cy="263.69957294439337" r="3" fill="#2ca02c"/><circle cx="194.48818897637796" cy="260.3862778233068" r="3" fill="#2ca02c"/><line x1="596" y1="382" x2="614" y2="382" stroke="#2ca02c" stroke-width="2"/><text x="620" y="386">rps_on</text><path d="M130.23622047244095 268.14307168029944 L162.36220472440945 233.6431590014081 L194.48818897637796 231.5438702420205 " fill="none" stroke="#9467bd" stroke-width="2"/><circle cx="130.23622047244095" cy="268.14307168029944" r="3" fill="#9467bd"/><circle cx="162.36220472440945" cy="233.6431590014081" r="3" fill="#9467bd"/><circle cx="194.48818897637796" cy="231.5438702420205" r="3" fill="#9467bd"/><line x1="596" y1="400" x2="614" y2="400" stroke="#9467bd" stroke-width="2"/><text x="620" y="404">split</text><path d="M194.48818897637796 224.4163708813812 L226.61417322834646 217.60361646479134 L258.74015748031496 222.6428724071768 L322.99212598425197 217.83072751821118 " fill="none" stroke="#ff7f0e" stroke-width="2"/><circle cx="194.48818897637796" cy="224.4163708813812" r="3" fill="#ff7f0e"/><circle cx="226.61417322834646" cy="217.60361646479134" r="3" fill="#ff7f0e"/><circle cx="258.74015748031496" cy="222.6428724071768" r="3" fill="#ff7f0e"/><circle cx="322.99212598425197" cy="217.83072751821118" r="3" fill="#ff7f0e"/><line x1="596" y1="418" x2="614" y2="418" stroke="#ff7f0e" stroke-width="2"/><text x="620" y="422">split64</text><path d="M226.61417322834646 200.2336952867937 " fill="none" stroke="#17becf" stroke-width="2"/><circle cx="226.61417322834646" cy="200.2336952867937" r="3" fill="#17becf"/><line x1="596" y1="436" x2="614" y2="436" stroke="#17becf" stroke-width="2"/><text x="620" y="440">uni_rings1024</text><path d="M226.61417322834646 217.98493365149702 " fill="none" stroke="#8c564b" stroke-width="2"/><circle cx="226.61417322834646" cy="217.98493365149702" r="3" fill="#8c564b"/><line x1="596" y1="454" x2="614" y2="454" stroke="#8c564b" stroke-width="2"/><text x="620" y="458">uni_ringsmax</text><path d="M194.48818897637796 218.95715283616863 L226.61417322834646 236.0969679368752 L258.74015748031496 243.38645442599483 L322.99212598425197 240.83877852098098 L451.496062992126 203.76316095022955 L580 207.547541001533 " fill="none" stroke="#e377c2" stroke-width="2"/><circle cx="194.48818897637796" cy="218.95715283616863" r="3" fill="#e377c2"/><circle cx="226.61417322834646" cy="236.0969679368752" r="3" fill="#e377c2"/><circle cx="258.74015748031496" cy="243.38645442599483" r="3" fill="#e377c2"/><circle cx="322.99212598425197" cy="240.83877852098098" r="3" fill="#e377c2"/><circle cx="451.496062992126" cy="203.76316095022955" r="3" fill="#e377c2"/><circle cx="580" cy="207.547541001533" r="3" fill="#e377c2"/><line x1="596" y1="472" x2="614" y2="472" stroke="#e377c2" stroke-width="2"/><text x="620" y="476">uni_split</text><path d="M451.496062992126 197.12860328125825 " fill="none" stroke="#1f77b4" stroke-width="2"/><circle cx="451.496062992126" cy="197.12860328125825" r="3" fill="#1f77b4"/><line x1="596" y1="490" x2="614" y2="490" stroke="#1f77b4" stroke-width="2"/><text x="620" y="494">uni_split96</text></svg>